<?xml version="1.0" standalone="no"?><!DOCTYPE svg PUBLIC "-//W3C//DTD SVG 1.1//EN" "http://www.w3.org/Graphics/SVG/1.1/DTD/svg11.dtd"><svg t="1708755545643" class="icon" viewBox="0 0 1024 1024" version="1.1" xmlns="http://www.w3.org/2000/svg" p-id="7123" xmlns:xlink="http://www.w3.org/1999/xlink" width="64" height="64"><path d="M1024 640.8c-2.176 23.136-32.992 41.6-92.384 55.04-59.392 13.664-133.888 20.448-223.584 20.448-26.496 0-51.872-0.352-76.16-1.12v140.064a1313.28 1313.28 0 0 0 76.16 2.272c89.344-0.864 163.84-8.736 223.328-24.032s90.464-34.464 92.64-57.632v-135.04z m-317.088-100.992c-25.728 0-51.168-0.672-76.128-2.176l1.12 142.72c24.32 0.672 49.632 1.28 76.16 1.28 89.6-0.64 164.192-8.32 223.52-23.68 59.392-14.752 90.24-33.92 92.384-56.96V463.36c-2.176 23.168-33.12 41.728-92.928 55.68-59.68 14.08-134.4 21.12-224.16 21.12v-0.352z m0-175.872c-25.728 0-51.168-0.8-76.128-2.272v142.304c24.96 1.44 50.432 2.272 76.128 2.272 89.632-0.8 164.48-8.672 224.16-23.68 59.776-15.104 90.752-34.272 92.928-57.44V288.384c-2.176 23.2-33.12 41.632-92.928 55.2-59.68 13.536-134.4 20.448-224.16 20.448v-0.096z m0-197.408c-25.728 0-51.168 1.056-76.128 3.296v157.728c24.96 1.44 50.432 2.144 76.128 2.144 89.632-0.64 164.48-8.48 224.16-23.392 59.808-14.848 90.752-34.144 92.928-57.632-2.176-23.136-33.12-42.464-92.928-57.856-59.68-15.36-134.4-23.04-224.16-23.712v-0.544zM276.224 388.736c-1.376 8.416-7.296 35.168-17.568 80l-19.2 78.24 76.8 1.056-17.92-78.304c-10.912-45.6-17.952-72.928-19.232-80.64h-2.56l-0.288-0.384zM0 134.528v757.728L577.92 992V32L0 134.528z m353.44 564.64l-21.504-85.408-106.4-3.84-20.448 80.48-67.872-4.48 103.2-361.6 78.944-4.448 112.608 383.776-78.496-4.48z" fill="#BA141A" p-id="7124"></path></svg>