<svg width="256" height="256" xmlns="http://www.w3.org/2000/svg" class="icon">
 <g>
  <title>background</title>
  <rect x="-1" y="-1" width="258" height="258" id="canvas_background" fill="none"/>
 </g>

 <g>
  <title>Layer 1</title>
  <path d="m186.442718,242.365004l-116.888497,0a10.648558,10.885179 0 0 1 -9.220767,-5.44259l-58.447319,-103.481395a10.635355,10.871683 0 0 1 0,-10.882041l58.447319,-103.481395a10.644873,10.881413 0 0 1 9.220767,-5.44259l116.891568,0a10.648558,10.885179 0 0 1 9.220767,5.44259l58.447319,103.481395c1.903721,3.367877 1.903721,7.517302 0,10.882041l-58.45039,103.481395a10.651322,10.888004 0 0 1 -9.220767,5.44259zm-110.74439,-21.76722l104.597212,0l52.300141,-92.596215l-52.300141,-92.599354l-104.597212,0l-52.300141,92.599354l52.300141,92.596215z" fill="#1296db" id="svg_1"/>
  <path d="m192.924335,92.170605c-10.547482,-18.302161 -32.862284,-31.035604 -58.611897,-31.035604l-19.132214,0c-25.749613,0 -48.064415,12.733443 -58.611897,31.035604l136.356008,0zm6.507338,23.574752l-0.064202,25.516881l0.064202,-25.516881zm-142.537749,48.649367c10.680472,17.998343 32.802668,30.470271 58.286301,30.470271l19.132214,0c25.483633,0 47.605829,-12.471929 58.286301,-30.470271l-135.704816,0z" fill="#1296db" id="svg_2"/>
  <text fill="#d81e06" stroke-width="0" x="43.98541" y="142.933328" id="svg_3" font-size="56" font-family="'Courier New', Courier, monospace" text-anchor="start" xml:space="preserve" font-weight="bold">DBFOX</text>
 </g>
</svg>